<?xml version="1.0" standalone="no"?>
<!DOCTYPE svg PUBLIC "-//W3C//DTD SVG 20010904//EN"
 "http://www.w3.org/TR/2001/REC-SVG-20010904/DTD/svg10.dtd">
<svg version="1.0" xmlns="http://www.w3.org/2000/svg"
 width="1700.000000pt" height="1700.000000pt" viewBox="0 0 1700.000000 1700.000000"
 preserveAspectRatio="xMidYMid meet">

<g transform="translate(0.000000,1700.000000) scale(0.100000,-0.100000)"
fill="#000000" stroke="none">
<path fill="#7e7e7e" d="M8218 14924 c-4 -3 -73 -10 -155 -15 -155 -9 -253 -21 -498 -58 -104
-15 -286 -49 -410 -75 -139 -30 -315 -72 -395 -94 -19 -6 -62 -18 -95 -27 -81
-22 -128 -38 -139 -47 -6 -4 -20 -8 -32 -8 -22 0 -335 -103 -366 -120 -10 -6
-22 -10 -28 -10 -6 0 -29 -8 -53 -19 -23 -10 -58 -24 -77 -32 -33 -12 -79 -32
-182 -78 -26 -11 -50 -21 -53 -21 -17 0 -408 -199 -565 -288 -25 -14 -54 -30
-65 -36 -37 -20 -180 -110 -243 -153 -35 -24 -66 -43 -70 -43 -4 0 -18 -10
-32 -21 -14 -11 -64 -46 -111 -78 -77 -51 -291 -209 -344 -252 -11 -10 -41
-34 -66 -55 -25 -22 -57 -48 -71 -59 -68 -53 -282 -248 -484 -440 -17 -17 -80
-84 -139 -150 -59 -66 -142 -158 -184 -204 -42 -47 -85 -96 -96 -110 -19 -26
-19 -26 0 -11 11 8 27 22 35 32 8 9 60 51 115 92 55 42 105 81 112 86 6 5 40
28 75 50 35 22 68 44 75 50 6 5 27 18 45 28 18 11 62 37 98 59 73 44 115 68
305 173 135 75 538 272 631 308 27 11 76 32 109 47 161 73 173 78 340 144 72
29 139 56 150 61 11 4 58 22 105 40 47 18 94 36 105 40 11 5 61 23 110 40 50
17 99 35 110 40 11 5 99 34 195 65 96 31 183 61 192 66 10 5 26 9 36 9 10 0
22 4 28 8 8 8 28 14 134 45 19 5 44 13 55 18 11 4 29 10 40 12 17 5 223 62
310 87 52 15 149 41 190 52 22 5 50 14 63 19 13 5 34 9 47 9 13 0 27 5 30 10
3 6 17 10 30 10 13 0 50 7 82 16 148 40 534 122 863 183 84 16 119 22 190 33
36 5 90 14 120 19 136 22 342 47 615 73 94 9 220 22 280 28 149 17 1094 17
1225 1 52 -7 194 -24 315 -38 246 -29 313 -41 444 -79 80 -24 94 -19 26 9 -33
14 -70 30 -82 35 -28 12 -70 30 -100 41 -41 16 -67 27 -103 42 -75 33 -169 66
-255 92 -144 43 -159 47 -180 56 -18 8 -80 25 -155 44 -14 4 -34 10 -45 15
-11 5 -31 11 -45 14 -14 2 -79 19 -145 36 -102 26 -279 64 -350 75 -11 2 -54
9 -95 15 -41 6 -100 16 -130 21 -137 22 -267 37 -540 60 -138 12 -843 23 -852
13z"/>
<path d="M11360 14336 c0 -2 7 -7 16 -10 8 -3 12 -2 9 4 -6 10 -25 14 -25 6z"/>
<path fill="#ff0000" d="M9831 13539 c-23 -25 -61 -102 -61 -123 0 -18 -56 -65 -100 -84 -23
-9 -69 -14 -143 -13 l-110 1 -48 45 -48 45 -118 -56 c-65 -31 -140 -66 -168
-79 -27 -12 -84 -38 -125 -58 -41 -19 -110 -51 -153 -71 -42 -20 -81 -36 -87
-36 -5 0 -29 14 -53 30 -32 22 -57 30 -87 30 -37 0 -48 -6 -84 -43 -22 -23
-48 -56 -58 -74 -12 -24 -27 -35 -60 -43 -88 -24 -109 -48 -126 -142 -13 -68
-40 -115 -75 -129 -27 -12 -39 -10 -106 15 -285 104 -453 154 -591 176 -297
46 -461 134 -661 356 -139 155 -422 115 -567 -80 -42 -58 -88 -146 -109 -211
-9 -28 -13 -30 -61 -30 -29 1 -52 -3 -52 -7 0 -4 11 -28 26 -53 l25 -46 -25
-54 c-33 -69 -33 -106 4 -240 59 -220 43 -287 -135 -560 -108 -165 -142 -254
-155 -410 -6 -60 -13 -123 -17 -139 -5 -26 -4 -28 13 -21 63 25 562 191 772
256 34 10 90 28 125 38 90 28 570 169 652 192 178 49 228 62 335 90 514 135
969 239 1470 334 1107 211 2168 277 2965 185 283 -32 627 -102 806 -164 l39
-14 26 44 c19 32 25 57 25 100 0 71 -17 91 -83 100 -50 7 -65 19 -100 83 -11
20 -25 31 -39 31 -55 0 -105 26 -164 85 -101 102 -170 187 -209 260 -50 91
-50 91 -101 109 l-45 15 -37 -42 c-21 -22 -59 -63 -84 -91 l-46 -49 -132 52
c-73 29 -138 50 -144 48 -7 -3 -50 -35 -96 -71 -46 -36 -92 -66 -102 -66 -21
0 -111 23 -151 39 -34 13 -156 120 -316 276 -137 133 -188 165 -268 165 -39 0
-61 -7 -97 -30 -42 -26 -60 -31 -147 -36 -117 -8 -152 2 -250 71 l-63 44 -32
-24 c-52 -40 -87 -34 -195 35 -77 48 -103 60 -137 60 -30 0 -48 -6 -62 -21z"/>
<path fill="#7e7e7e" d="M10995 12410 c-55 -5 -149 -9 -208 -9 -60 0 -114 -4 -121 -10 -6 -5
-61 -12 -121 -15 -103 -5 -173 -11 -405 -36 -52 -5 -126 -13 -165 -16 -38 -3
-74 -10 -80 -15 -5 -5 -37 -9 -71 -9 -35 0 -66 -4 -69 -10 -3 -5 -28 -10 -54
-10 -42 0 -104 -8 -301 -41 -30 -5 -89 -14 -130 -19 -41 -5 -95 -14 -120 -19
-42 -9 -125 -24 -195 -35 -16 -3 -52 -10 -80 -16 -82 -18 -147 -30 -198 -36
-26 -4 -50 -11 -53 -15 -3 -5 -23 -9 -44 -9 -21 0 -42 -4 -45 -10 -3 -5 -24
-10 -45 -10 -21 0 -42 -4 -45 -10 -3 -5 -22 -10 -40 -10 -31 0 -105 -14 -145
-28 -8 -3 -24 -7 -35 -9 -84 -15 -125 -26 -125 -34 0 -5 -10 -7 -23 -4 -12 4
-36 1 -52 -6 -17 -7 -34 -11 -39 -10 -13 3 -107 -19 -128 -30 -10 -5 -31 -9
-48 -9 -17 0 -33 -6 -36 -13 -3 -8 -17 -11 -38 -9 -19 2 -37 -1 -40 -7 -4 -6
-23 -11 -42 -11 -19 0 -34 -4 -34 -10 0 -5 -15 -10 -34 -10 -19 0 -38 -4 -41
-10 -3 -5 -22 -10 -41 -10 -19 0 -34 -4 -34 -10 0 -5 -18 -10 -39 -10 -22 0
-43 -4 -46 -10 -3 -5 -17 -10 -31 -10 -13 0 -32 -4 -42 -9 -19 -9 -128 -38
-217 -56 -16 -4 -39 -10 -50 -15 -11 -4 -40 -13 -65 -20 -25 -7 -55 -16 -68
-21 -13 -5 -34 -9 -47 -9 -14 0 -25 -4 -25 -10 0 -5 -13 -10 -29 -10 -17 0
-33 -4 -36 -10 -3 -5 -19 -10 -36 -10 -16 0 -29 -4 -29 -10 0 -5 -16 -10 -36
-10 -19 0 -33 -3 -31 -7 3 -5 -9 -9 -26 -10 -17 -1 -35 -7 -41 -13 -5 -5 -17
-10 -26 -10 -14 0 -172 -44 -215 -60 -11 -4 -38 -13 -60 -19 -22 -7 -49 -16
-60 -21 -11 -4 -46 -16 -78 -25 -31 -9 -55 -20 -53 -24 3 -4 -8 -6 -23 -3 -16
2 -32 -1 -35 -7 -4 -6 -18 -11 -32 -11 -13 0 -24 -4 -24 -10 0 -5 -10 -10 -22
-10 -25 0 -93 -22 -104 -33 -4 -4 -18 -7 -31 -7 -12 0 -23 -5 -23 -11 0 -7 -9
-9 -21 -6 -12 3 -22 0 -26 -9 -3 -8 -9 -12 -13 -9 -8 5 -124 -29 -152 -45 -10
-6 -26 -10 -36 -10 -10 0 -22 -3 -26 -7 -4 -4 -31 -15 -59 -24 -29 -10 -51
-21 -50 -26 1 -5 -11 -7 -26 -5 -16 2 -32 -1 -35 -7 -4 -6 -14 -11 -22 -11 -8
0 -34 -9 -56 -20 -23 -11 -50 -20 -60 -20 -10 0 -18 -4 -18 -10 0 -5 -11 -10
-24 -10 -14 0 -28 -5 -31 -10 -4 -6 -11 -8 -16 -4 -5 3 -15 1 -22 -4 -7 -5
-30 -15 -52 -21 -22 -7 -50 -17 -62 -22 -13 -5 -35 -14 -50 -20 -16 -6 -36
-15 -45 -20 -10 -5 -27 -9 -38 -9 -11 0 -20 -4 -20 -10 0 -5 -11 -10 -24 -10
-14 0 -28 -4 -31 -10 -3 -5 -15 -10 -26 -10 -10 0 -19 -4 -19 -10 0 -5 -11
-10 -25 -10 -14 0 -25 -4 -25 -10 0 -5 -13 -10 -30 -10 -16 0 -30 -4 -30 -10
0 -5 -8 -10 -18 -10 -10 0 -22 -4 -28 -8 -5 -5 -28 -14 -51 -22 -23 -7 -40
-17 -36 -23 3 -6 1 -7 -5 -3 -6 4 -32 -2 -56 -14 -25 -11 -52 -20 -60 -20 -8
0 -18 -4 -21 -10 -3 -5 -15 -10 -26 -10 -10 0 -19 -4 -19 -10 0 -5 -9 -10 -20
-10 -11 0 -35 -9 -55 -20 -20 -11 -44 -20 -55 -20 -11 0 -20 -4 -20 -10 0 -5
-9 -10 -19 -10 -11 0 -23 -4 -26 -10 -3 -5 -15 -10 -26 -10 -10 0 -19 -4 -19
-10 0 -5 -7 -10 -15 -10 -8 0 -23 -4 -33 -9 -9 -5 -42 -19 -72 -31 -30 -12
-77 -32 -105 -45 -27 -12 -68 -30 -90 -40 -107 -47 -165 -77 -160 -85 3 -4 -3
-6 -12 -4 -10 3 -40 -7 -68 -20 -27 -14 -53 -26 -57 -26 -13 0 -343 -164 -346
-172 -2 -4 -10 -8 -17 -8 -23 0 -67 -27 -53 -33 7 -3 2 -6 -12 -7 -14 -1 -44
-11 -67 -23 -23 -12 -73 -38 -110 -57 -37 -19 -70 -37 -73 -40 -3 -3 -18 -12
-35 -20 -16 -8 -58 -32 -92 -52 -35 -21 -67 -38 -72 -38 -5 0 -11 -3 -13 -7
-1 -5 -20 -16 -40 -27 -20 -10 -46 -27 -57 -37 -11 -11 -23 -19 -26 -19 -9 0
-187 -120 -212 -142 -12 -11 -19 -26 -17 -33 3 -7 1 -16 -5 -20 -7 -3 -8 0 -5
9 8 20 -5 20 -30 1 -10 -8 -15 -19 -10 -26 4 -8 3 -10 -4 -5 -12 7 -63 -39
-98 -89 -19 -27 -50 -172 -43 -200 1 -5 -1 -17 -4 -25 -3 -8 -9 -42 -12 -75
-3 -33 -10 -100 -16 -150 -16 -137 -22 -534 -8 -551 6 -8 9 -20 6 -27 -4 -11
8 -184 18 -247 2 -14 4 -38 4 -53 1 -16 4 -26 8 -24 5 3 9 -17 10 -44 1 -27 7
-68 14 -91 6 -23 15 -65 20 -92 11 -58 23 -111 39 -176 6 -25 14 -60 17 -78 3
-18 9 -35 14 -38 5 -3 9 -16 9 -30 0 -23 3 -33 28 -81 7 -13 12 -32 12 -42 0
-11 5 -23 10 -26 6 -3 10 -15 10 -26 0 -10 4 -19 9 -19 5 0 7 -10 5 -22 -4
-21 -4 -21 7 2 7 14 13 27 13 30 5 28 133 160 222 230 31 25 68 55 81 67 13
13 24 22 26 20 1 -1 46 27 100 62 70 46 94 67 85 73 -8 5 -2 6 15 2 17 -4 27
-2 27 5 0 6 7 11 15 11 8 0 15 5 15 10 0 6 7 10 16 10 8 0 12 5 9 10 -3 6 3
10 14 10 10 0 21 4 23 8 1 4 23 18 48 30 75 37 115 62 113 71 -1 5 7 7 17 4
11 -3 20 -1 20 4 0 5 16 15 35 23 19 8 35 17 35 22 0 4 9 8 20 8 11 0 20 4 20
8 0 5 16 14 35 22 19 8 35 17 35 22 0 4 9 8 19 8 11 0 21 3 23 8 3 6 149 80
225 113 18 8 33 17 33 21 0 5 6 8 14 8 17 0 100 42 104 53 2 4 10 7 18 7 16 0
56 20 65 33 3 5 9 8 13 7 10 -3 66 22 66 29 0 4 8 7 19 8 10 1 52 18 92 37 41
20 80 36 86 36 7 0 13 5 13 10 0 6 7 10 15 10 8 0 23 4 33 9 9 5 37 18 62 29
25 11 71 32 102 47 32 14 60 26 62 26 3 0 36 14 73 30 38 16 77 34 88 38 55
23 82 34 97 42 10 5 25 9 33 9 8 0 15 5 15 10 0 6 7 10 15 10 8 0 23 4 33 9 9
5 42 19 72 31 30 13 70 30 89 38 18 8 39 15 45 17 6 1 22 7 36 12 14 6 57 23
95 38 39 15 84 33 102 41 17 8 34 14 38 14 7 0 68 26 97 41 10 5 25 9 33 9 8
0 15 5 15 10 0 6 11 10 24 10 14 0 28 5 31 10 3 6 17 10 31 10 14 0 23 4 19 9
-3 6 3 9 14 8 10 0 36 6 57 15 22 9 60 24 86 34 26 9 46 20 43 24 -2 4 6 5 19
3 13 -3 27 0 30 6 4 6 18 11 31 11 13 0 26 4 29 9 4 5 29 15 56 22 28 7 50 16
50 21 0 4 11 8 25 8 14 0 25 5 25 10 0 6 11 10 24 10 14 0 28 5 31 10 3 6 15
10 26 10 10 0 27 4 37 9 9 5 25 12 35 15 10 3 16 10 13 14 -3 5 8 7 23 4 16
-2 32 1 35 7 4 6 18 11 31 11 13 0 26 4 29 9 4 5 25 12 48 16 23 4 49 11 58
15 31 15 66 29 105 41 22 6 48 15 57 20 10 5 27 9 37 9 11 0 23 5 26 10 3 6
17 10 31 10 13 0 24 4 24 9 0 8 9 11 88 27 17 3 32 10 32 15 0 5 14 9 30 9 17
0 30 5 30 10 0 6 11 10 25 10 14 0 25 5 25 10 0 6 12 10 28 10 29 0 137 31
148 43 4 4 16 7 26 7 10 0 26 4 36 9 9 5 37 14 62 21 25 7 53 16 62 21 10 5
29 9 43 9 14 0 25 5 25 10 0 6 11 10 25 10 14 0 33 4 43 9 26 13 86 31 105 31
10 0 25 4 35 9 9 5 35 14 57 20 22 7 49 16 60 20 11 5 49 16 85 25 36 9 74 19
85 22 11 3 31 8 45 11 14 2 34 8 45 12 45 18 93 31 113 31 12 0 30 4 40 9 9 5
37 14 62 21 25 7 53 16 62 21 10 5 31 9 47 9 17 0 33 5 36 10 3 6 22 10 41 10
19 0 34 5 34 10 0 6 14 10 30 10 17 0 30 5 30 10 0 6 12 10 28 10 35 1 135 24
128 30 -2 3 8 5 22 6 28 1 88 14 157 34 22 7 57 14 78 17 20 3 40 9 43 14 3 5
23 9 45 9 21 0 39 5 39 10 0 6 18 10 40 10 22 0 40 5 40 10 0 6 18 10 40 10
22 0 40 5 40 10 0 6 20 10 44 10 25 0 47 4 50 9 3 5 23 11 43 14 71 11 108 18
128 27 11 5 38 11 60 14 65 9 109 17 125 23 8 3 51 12 95 20 44 8 100 19 125
24 25 5 69 12 98 15 29 4 55 11 58 15 3 5 25 9 49 9 24 0 47 5 50 10 3 6 26
10 50 10 24 0 46 4 49 9 3 5 32 11 63 14 138 15 173 20 173 27 0 3 26 8 57 9
31 1 64 6 74 12 10 5 37 9 61 9 24 0 48 4 53 9 6 5 42 12 80 15 67 5 187 20
250 29 47 7 146 19 190 23 22 2 90 8 150 14 244 23 357 31 505 36 85 2 164 9
175 15 13 6 143 8 365 5 385 -4 561 -12 635 -26 28 -5 82 -12 120 -15 78 -6
162 -17 310 -40 187 -30 200 -32 190 -35 -5 -1 10 -6 35 -11 94 -17 135 -27
125 -29 -12 -3 53 -19 108 -27 20 -3 37 -9 37 -14 0 -5 13 -9 29 -9 17 0 33
-4 36 -10 3 -5 17 -10 30 -10 13 0 27 -4 30 -10 3 -5 17 -10 30 -10 13 0 27
-5 31 -11 3 -6 19 -9 35 -7 15 3 26 1 23 -4 -3 -4 3 -11 13 -14 10 -3 37 -15
61 -26 25 -11 53 -16 65 -13 16 5 18 4 8 -3 -10 -7 -10 -11 -1 -17 6 -4 14 -5
17 -1 3 3 11 -1 19 -8 7 -7 25 -12 41 -10 24 4 25 3 8 -5 -16 -8 -17 -10 -3
-10 9 -1 18 -5 20 -9 2 -4 26 -22 55 -39 28 -18 64 -42 80 -55 60 -49 171
-169 187 -203 17 -35 34 -50 21 -17 -13 31 -35 123 -35 142 0 11 -4 20 -10 20
-5 0 -10 14 -10 30 0 17 -4 30 -10 30 -5 0 -10 15 -10 33 0 19 -3 37 -7 41 -4
3 -8 17 -10 29 -9 59 -84 269 -103 287 -3 3 -12 25 -20 50 -8 25 -22 60 -32
78 -10 18 -18 39 -18 47 0 8 -4 15 -10 15 -5 0 -10 7 -10 15 0 8 -4 23 -10 33
-5 9 -29 58 -53 107 -24 50 -61 119 -83 155 -21 36 -45 77 -53 92 -8 15 -18
25 -23 22 -4 -3 -8 3 -8 13 0 18 -143 223 -220 313 -8 10 -23 28 -32 39 -10
12 -15 21 -11 21 3 0 -2 9 -13 21 -17 19 -19 19 -31 3 -7 -10 -13 -13 -13 -8
0 6 5 15 10 20 8 8 -2 27 -31 65 -24 30 -45 56 -49 59 -3 3 -21 25 -40 50 -56
72 -73 92 -110 130 -52 53 -146 130 -159 130 -6 0 -11 5 -11 10 0 6 -7 10 -15
10 -8 0 -15 5 -15 10 0 6 -9 10 -20 10 -11 0 -20 5 -20 10 0 6 -6 10 -14 10
-8 0 -16 3 -18 8 -7 16 -240 118 -288 125 -11 2 -23 6 -26 10 -4 4 -23 7 -41
7 -20 0 -32 4 -28 10 4 6 -10 10 -34 10 -23 0 -41 5 -41 10 0 6 -16 10 -35 10
-19 0 -35 4 -35 9 0 5 -19 12 -42 15 -24 3 -63 8 -88 11 -25 3 -54 10 -65 15
-11 5 -49 12 -85 15 -36 3 -105 10 -155 16 -49 5 -144 13 -210 19 -156 13
-961 20 -1090 10z m312 -26 c-3 -3 -12 -4 -19 -1 -8 3 -5 6 6 6 11 1 17 -2 13
-5z m-510 -10 c-3 -3 -12 -4 -19 -1 -8 3 -5 6 6 6 11 1 17 -2 13 -5z m1200 0
c-3 -3 -12 -4 -19 -1 -8 3 -5 6 6 6 11 1 17 -2 13 -5z m-2044 -91 c-7 -2 -19
-2 -25 0 -7 3 -2 5 12 5 14 0 19 -2 13 -5z m-293 -33 c0 -5 -4 -10 -10 -10 -5
0 -10 5 -10 10 0 6 5 10 10 10 6 0 10 -4 10 -10z m3270 -10 c0 -5 -4 -10 -9
-10 -6 0 -13 5 -16 10 -3 6 1 10 9 10 9 0 16 -4 16 -10z m-3430 -10 c0 -5 -5
-10 -11 -10 -5 0 -7 5 -4 10 3 6 8 10 11 10 2 0 4 -4 4 -10z m3440 -14 c0 -2
-7 -6 -15 -10 -8 -3 -15 -1 -15 4 0 6 7 10 15 10 8 0 15 -2 15 -4z m37 -2 c-3
-3 -12 -4 -19 -1 -8 3 -5 6 6 6 11 1 17 -2 13 -5z m-3802 -44 c-3 -5 -11 -10
-16 -10 -6 0 -7 5 -4 10 3 6 11 10 16 10 6 0 7 -4 4 -10z m3955 -16 c0 -8 -5
-12 -10 -9 -6 4 -8 11 -5 16 9 14 15 11 15 -7z m37 -10 c-3 -3 -12 -4 -19 -1
-8 3 -5 6 6 6 11 1 17 -2 13 -5z m-4257 -18 c0 -2 -7 -6 -15 -10 -8 -3 -15 -1
-15 4 0 6 7 10 15 10 8 0 15 -2 15 -4z m237 -2 c-3 -3 -12 -4 -19 -1 -8 3 -5
6 6 6 11 1 17 -2 13 -5z m4088 -24 c3 -5 1 -10 -4 -10 -6 0 -11 5 -11 10 0 6
2 10 4 10 3 0 8 -4 11 -10z m55 -30 c0 -5 -7 -7 -15 -4 -8 4 -15 8 -15 10 0 2
7 4 15 4 8 0 15 -4 15 -10z m-4723 -16 c-3 -3 -12 -4 -19 -1 -8 3 -5 6 6 6 11
1 17 -2 13 -5z m-360 -90 c-3 -3 -12 -4 -19 -1 -8 3 -5 6 6 6 11 1 17 -2 13
-5z m5310 -50 c-3 -3 -12 -4 -19 -1 -8 3 -5 6 6 6 11 1 17 -2 13 -5z m-5857
-74 c0 -5 -2 -10 -4 -10 -3 0 -8 5 -11 10 -3 6 -1 10 4 10 6 0 11 -4 11 -10z
m5920 -20 c0 -5 -2 -10 -4 -10 -3 0 -8 5 -11 10 -3 6 -1 10 4 10 6 0 11 -4 11
-10z m-6534 -145 c-8 -8 -18 -15 -22 -15 -3 0 -1 7 6 15 7 8 17 15 22 15 5 0
3 -7 -6 -15z m-299 -71 c-3 -3 -12 -4 -19 -1 -8 3 -5 6 6 6 11 1 17 -2 13 -5z
m-262 -74 c3 -5 1 -10 -4 -10 -6 0 -11 5 -11 10 0 6 2 10 4 10 3 0 8 -4 11
-10z m-38 -26 c-3 -3 -12 -4 -19 -1 -8 3 -5 6 6 6 11 1 17 -2 13 -5z m48 -12
c-3 -3 -11 0 -18 7 -9 10 -8 11 6 5 10 -3 15 -9 12 -12z m7370 -32 c3 -5 1
-10 -4 -10 -6 0 -11 5 -11 10 0 6 2 10 4 10 3 0 8 -4 11 -10z m80 -100 c3 -5
1 -10 -4 -10 -6 0 -11 5 -11 10 0 6 2 10 4 10 3 0 8 -4 11 -10z m-7955 -14 c0
-2 -8 -10 -17 -17 -16 -13 -17 -12 -4 4 13 16 21 21 21 13z m-233 -92 c-3 -3
-12 -4 -19 -1 -8 3 -5 6 6 6 11 1 17 -2 13 -5z m-120 -10 c-3 -3 -12 -4 -19
-1 -8 3 -5 6 6 6 11 1 17 -2 13 -5z m-517 -184 c0 -5 -4 -10 -10 -10 -5 0 -10
5 -10 10 0 6 5 10 10 10 6 0 10 -4 10 -10z m-43 -16 c-3 -3 -12 -4 -19 -1 -8
3 -5 6 6 6 11 1 17 -2 13 -5z m-80 -30 c-3 -3 -12 -4 -19 -1 -8 3 -5 6 6 6 11
1 17 -2 13 -5z m9208 -64 c3 -5 1 -10 -4 -10 -6 0 -11 5 -11 10 0 6 2 10 4 10
3 0 8 -4 11 -10z m-28 -22 c-3 -8 -6 -5 -6 6 -1 11 2 17 5 13 3 -3 4 -12 1
-19z m-9480 -30 c-3 -8 -6 -5 -6 6 -1 11 2 17 5 13 3 -3 4 -12 1 -19z m-260
-124 c-3 -3 -12 -4 -19 -1 -8 3 -5 6 6 6 11 1 17 -2 13 -5z m8470 -120 c-3 -3
-12 -4 -19 -1 -8 3 -5 6 6 6 11 1 17 -2 13 -5z m130 0 c-3 -3 -12 -4 -19 -1
-8 3 -5 6 6 6 11 1 17 -2 13 -5z m-1824 -21 c-7 -2 -19 -2 -25 0 -7 3 -2 5 12
5 14 0 19 -2 13 -5z m2007 -3 c0 -5 -4 -10 -10 -10 -5 0 -10 5 -10 10 0 6 5
10 10 10 6 0 10 -4 10 -10z m187 -46 c-3 -3 -12 -4 -19 -1 -8 3 -5 6 6 6 11 1
17 -2 13 -5z m-9494 -31 c-7 -2 -19 -2 -25 0 -7 3 -2 5 12 5 14 0 19 -2 13 -5z
m9654 1 c-3 -3 -12 -4 -19 -1 -8 3 -5 6 6 6 11 1 17 -2 13 -5z m760 -26 c-3
-7 -5 -2 -5 12 0 14 2 19 5 13 2 -7 2 -19 0 -25z m-10414 -5 c-7 -2 -19 -2
-25 0 -7 3 -2 5 12 5 14 0 19 -2 13 -5z m6110 -20 c-7 -2 -19 -2 -25 0 -7 3
-2 5 12 5 14 0 19 -2 13 -5z m84 -19 c-3 -3 -12 -4 -19 -1 -8 3 -5 6 6 6 11 1
17 -2 13 -5z m4330 -66 c-3 -8 -6 -5 -6 6 -1 11 2 17 5 13 3 -3 4 -12 1 -19z
m20 -50 c-3 -8 -6 -5 -6 6 -1 11 2 17 5 13 3 -3 4 -12 1 -19z m-5247 -28 c-8
-5 -22 -9 -30 -9 -10 0 -8 3 5 9 27 12 43 12 25 0z m-5870 -42 c0 -6 -6 -5
-15 2 -8 7 -15 14 -15 16 0 2 7 1 15 -2 8 -4 15 -11 15 -16z m11013 -45 c-7
-2 -19 -2 -25 0 -7 3 -2 5 12 5 14 0 19 -2 13 -5z m-11203 -30 c-8 -2 -25 -9
-37 -15 -11 -6 -27 -8 -35 -5 -7 3 -4 6 9 6 12 1 25 6 28 11 3 6 16 10 28 9
14 0 16 -2 7 -6z m11320 -27 c0 -3 -4 -8 -10 -11 -5 -3 -10 -1 -10 4 0 6 5 11
10 11 6 0 10 -2 10 -4z m-5963 -12 c-3 -3 -12 -4 -19 -1 -8 3 -5 6 6 6 11 1
17 -2 13 -5z m-5490 -20 c-3 -3 -12 -4 -19 -1 -8 3 -5 6 6 6 11 1 17 -2 13 -5z
m5463 -14 c0 -5 -5 -10 -11 -10 -5 0 -7 5 -4 10 3 6 8 10 11 10 2 0 4 -4 4
-10z m-163 -46 c-3 -3 -12 -4 -19 -1 -8 3 -5 6 6 6 11 1 17 -2 13 -5z m-5647
-138 c0 -2 -7 -7 -16 -10 -8 -3 -12 -2 -9 4 6 10 25 14 25 6z m4800 -96 c0 -5
-4 -10 -10 -10 -5 0 -10 5 -10 10 0 6 5 10 10 10 6 0 10 -4 10 -10z m-80 -10
c0 -5 -2 -10 -4 -10 -3 0 -8 5 -11 10 -3 6 -1 10 4 10 6 0 11 -4 11 -10z m-30
-20 c0 -5 -5 -10 -11 -10 -5 0 -7 5 -4 10 3 6 8 10 11 10 2 0 4 -4 4 -10z
m-4933 -16 c-3 -3 -12 -4 -19 -1 -8 3 -5 6 6 6 11 1 17 -2 13 -5z m-57 -54 c0
-5 -4 -10 -10 -10 -5 0 -10 5 -10 10 0 6 5 10 10 10 6 0 10 -4 10 -10z m4763
3 c-7 -2 -21 -2 -30 0 -10 3 -4 5 12 5 17 0 24 -2 18 -5z m-298 -63 c-3 -5
-11 -10 -16 -10 -6 0 -7 5 -4 10 3 6 11 10 16 10 6 0 7 -4 4 -10z m25 -24 c0
-2 -7 -7 -16 -10 -8 -3 -12 -2 -9 4 6 10 25 14 25 6z m-200 -50 c0 -2 -7 -6
-15 -10 -8 -3 -15 -1 -15 4 0 6 7 10 15 10 8 0 15 -2 15 -4z m-270 -80 c0 -3
-4 -8 -10 -11 -5 -3 -10 -1 -10 4 0 6 5 11 10 11 6 0 10 -2 10 -4z m47 -12
c-3 -3 -12 -4 -19 -1 -8 3 -5 6 6 6 11 1 17 -2 13 -5z m-4400 -86 c-3 -8 -6
-5 -6 6 -1 11 2 17 5 13 3 -3 4 -12 1 -19z m4100 -14 c-3 -3 -12 -4 -19 -1 -8
3 -5 6 6 6 11 1 17 -2 13 -5z m-30 -20 c-3 -3 -12 -4 -19 -1 -8 3 -5 6 6 6 11
1 17 -2 13 -5z m-4059 -41 c2 -20 -1 -24 -9 -16 -7 7 -9 19 -6 27 9 23 12 20
15 -11z m3942 7 c0 -5 -4 -10 -10 -10 -5 0 -10 5 -10 10 0 6 5 10 10 10 6 0
10 -4 10 -10z m-3913 -62 c-3 -8 -6 -5 -6 6 -1 11 2 17 5 13 3 -3 4 -12 1 -19z
m3441 -105 c-10 -2 -28 -2 -40 0 -13 2 -5 4 17 4 22 1 32 -1 23 -4z m-531
-179 c-3 -3 -12 -4 -19 -1 -8 3 -5 6 6 6 11 1 17 -2 13 -5z m-102 -74 c-3 -5
-12 -10 -18 -10 -7 0 -6 4 3 10 19 12 23 12 15 0z m-48 -26 c-3 -3 -12 -4 -19
-1 -8 3 -5 6 6 6 11 1 17 -2 13 -5z m-120 -40 c-3 -3 -12 -4 -19 -1 -8 3 -5 6
6 6 11 1 17 -2 13 -5z m-70 -20 c-3 -3 -12 -4 -19 -1 -8 3 -5 6 6 6 11 1 17
-2 13 -5z m-405 -176 c-7 -7 -12 -8 -12 -2 0 14 12 26 19 19 2 -3 -1 -11 -7
-17z m-372 -118 c0 -5 -5 -10 -11 -10 -5 0 -7 5 -4 10 3 6 8 10 11 10 2 0 4
-4 4 -10z m-245 -170 c3 -5 1 -10 -4 -10 -6 0 -11 5 -11 10 0 6 2 10 4 10 3 0
8 -4 11 -10z m-1568 -192 c-3 -8 -6 -5 -6 6 -1 11 2 17 5 13 3 -3 4 -12 1 -19z
m1083 -42 c0 -2 -7 -7 -16 -10 -8 -3 -12 -2 -9 4 6 10 25 14 25 6z m-1073 -48
c-3 -8 -6 -5 -6 6 -1 11 2 17 5 13 3 -3 4 -12 1 -19z m633 -198 c0 -5 -4 -10
-9 -10 -6 0 -13 5 -16 10 -3 6 1 10 9 10 9 0 16 -4 16 -10z m-553 -82 c-3 -8
-6 -5 -6 6 -1 11 2 17 5 13 3 -3 4 -12 1 -19z m500 16 c-3 -3 -12 -4 -19 -1
-8 3 -5 6 6 6 11 1 17 -2 13 -5z m-137 -84 c0 -5 -2 -10 -4 -10 -3 0 -8 5 -11
10 -3 6 -1 10 4 10 6 0 11 -4 11 -10z m-60 -44 c0 -3 -4 -8 -10 -11 -5 -3 -10
-1 -10 4 0 6 5 11 10 11 6 0 10 -2 10 -4z m-100 -40 c0 -2 -7 -6 -15 -10 -8
-3 -15 -1 -15 4 0 6 7 10 15 10 8 0 15 -2 15 -4z m-193 -28 c-3 -8 -6 -5 -6 6
-1 11 2 17 5 13 3 -3 4 -12 1 -19z m213 -2 c0 -3 -4 -8 -10 -11 -5 -3 -10 -1
-10 4 0 6 5 11 10 11 6 0 10 -2 10 -4z"/>
<path fill="#ff0000" d="M11945 10543 c-293 -17 -741 -57 -935 -83 -41 -6 -147 -19 -235 -31
-180 -22 -175 -22 -575 -84 -186 -30 -584 -100 -645 -114 -22 -5 -89 -19 -150
-31 -60 -11 -128 -25 -150 -30 -32 -8 -276 -61 -455 -100 -350 -76 -1089 -272
-1515 -401 -360 -110 -977 -310 -1040 -338 -11 -5 -87 -32 -170 -61 -302 -105
-1040 -388 -1200 -460 -22 -10 -80 -34 -130 -55 -49 -20 -92 -39 -95 -42 -2
-2 -3 -30 -2 -62 3 -55 -1 -65 -62 -181 -37 -68 -76 -134 -88 -147 -27 -29
-97 -63 -129 -63 -32 0 -65 -35 -74 -78 -10 -46 -54 -93 -133 -143 -37 -23
-109 -84 -161 -136 -57 -58 -110 -103 -137 -114 -53 -24 -159 -35 -196 -20
l-28 10 4 166 c3 107 0 165 -6 165 -6 0 -27 -13 -47 -28 -20 -15 -71 -52 -114
-81 l-77 -52 -35 21 c-25 16 -39 19 -48 12 -7 -6 -50 -58 -97 -116 -47 -58
-92 -105 -100 -105 -8 0 -46 27 -84 59 -41 35 -79 60 -93 60 -34 0 -132 -39
-179 -71 -55 -38 -92 -82 -122 -149 -23 -50 -26 -71 -31 -225 l-6 -170 -55 -7
c-30 -3 -80 -7 -110 -7 -80 -2 -81 -4 -64 -91 8 -41 14 -88 14 -103 0 -15 6
-30 14 -33 16 -6 134 29 371 110 l150 51 210 1 c116 0 278 -3 360 -9 140 -9
611 1 1055 22 158 8 206 2 275 -29 49 -22 119 -80 138 -114 6 -12 12 -59 12
-106 1 -91 1 -91 88 -250 53 -98 63 -141 48 -198 -11 -39 -10 -44 26 -102 21
-33 41 -60 45 -60 3 0 44 22 90 48 79 46 364 208 438 249 19 11 120 68 224
127 216 123 249 139 412 199 223 83 369 117 504 119 118 1 177 -22 217 -85 21
-33 25 -51 24 -113 -1 -88 -30 -183 -72 -236 -16 -20 -29 -40 -29 -43 0 -4 46
-4 103 0 86 6 124 14 247 57 747 259 1482 490 1980 624 52 14 120 32 150 40
192 52 668 169 795 195 22 4 83 17 135 29 487 105 1022 187 1375 211 88 6 198
14 245 17 l85 7 8 60 c11 85 -7 261 -53 493 -21 109 -41 217 -44 242 -35 245
-65 330 -162 463 -67 90 -54 157 37 194 50 20 79 60 79 110 0 52 42 213 66
254 11 19 40 49 64 67 114 85 130 120 109 241 -10 59 -10 95 0 185 17 148 45
290 76 381 14 42 25 78 25 80 0 7 -96 3 -365 -12z"/>
<path fill="#7e7e7e" d="M12148 7635 c-2 -1 -57 -5 -123 -9 -202 -11 -429 -31 -620 -56 -44
-6 -111 -13 -150 -16 -38 -3 -74 -10 -80 -15 -5 -5 -35 -9 -67 -9 -32 0 -58
-4 -58 -8 0 -5 -26 -10 -57 -11 -32 -1 -62 -6 -68 -12 -5 -5 -33 -9 -61 -9
-29 0 -56 -4 -59 -10 -3 -5 -28 -10 -56 -10 -27 0 -49 -4 -49 -9 0 -5 -24 -11
-52 -14 -49 -5 -126 -19 -173 -30 -11 -3 -35 -6 -53 -6 -18 -1 -31 -5 -28 -10
3 -4 -7 -8 -22 -8 -15 0 -54 -5 -87 -12 -33 -7 -77 -15 -98 -18 -21 -3 -41
-11 -43 -18 -3 -7 -14 -11 -26 -8 -21 6 -122 -13 -150 -28 -10 -5 -31 -9 -47
-9 -17 0 -33 -4 -36 -10 -3 -5 -19 -10 -36 -10 -16 0 -29 -4 -29 -10 0 -5 -22
-10 -49 -10 -28 0 -52 -4 -55 -9 -3 -5 -20 -11 -38 -14 -61 -9 -259 -63 -253
-68 3 -4 -7 -6 -22 -6 -16 0 -45 -6 -65 -12 -92 -27 -115 -33 -146 -38 -18 -3
-35 -9 -38 -14 -3 -5 -18 -9 -34 -9 -16 0 -32 -4 -35 -10 -3 -5 -19 -10 -36
-10 -16 0 -29 -4 -29 -9 0 -5 -15 -11 -32 -14 -76 -13 -98 -20 -98 -28 0 -5
-13 -9 -29 -9 -17 0 -33 -4 -36 -10 -3 -5 -17 -10 -30 -10 -13 0 -26 -4 -29
-9 -3 -4 -28 -11 -55 -15 -28 -4 -57 -13 -64 -21 -8 -7 -23 -11 -35 -9 -11 3
-23 1 -26 -5 -4 -6 -16 -11 -27 -11 -10 0 -27 -4 -37 -9 -9 -5 -37 -15 -62
-22 -25 -7 -49 -16 -55 -21 -5 -4 -19 -8 -31 -8 -13 0 -26 -4 -29 -10 -3 -5
-17 -10 -30 -10 -13 0 -27 -4 -30 -10 -3 -5 -17 -10 -30 -10 -13 0 -27 -4 -30
-10 -3 -5 -15 -10 -26 -10 -10 0 -28 -4 -39 -10 -11 -5 -29 -14 -40 -20 -11
-5 -29 -10 -39 -10 -11 0 -22 -4 -25 -9 -3 -4 -24 -11 -46 -15 -23 -3 -49 -10
-58 -15 -19 -11 -108 -43 -167 -62 -22 -7 -44 -17 -50 -21 -5 -4 -16 -8 -25
-8 -9 0 -35 -9 -58 -20 -22 -11 -50 -20 -62 -20 -11 0 -20 -4 -20 -10 0 -5
-11 -10 -25 -10 -14 0 -25 -4 -25 -10 0 -5 -11 -10 -25 -10 -14 0 -25 -4 -25
-10 0 -5 -8 -10 -19 -10 -17 0 -43 -9 -126 -45 -16 -7 -52 -20 -80 -30 -27 -9
-61 -21 -75 -27 -14 -6 -36 -15 -50 -21 -14 -5 -33 -13 -42 -18 -10 -5 -27 -9
-38 -9 -11 0 -20 -4 -20 -10 0 -5 -11 -10 -25 -10 -14 0 -25 -4 -25 -10 0 -5
-9 -10 -20 -10 -11 0 -28 -4 -38 -9 -9 -5 -38 -15 -64 -23 -27 -7 -48 -16 -48
-20 0 -4 -13 -8 -28 -8 -16 0 -32 -3 -36 -7 -3 -4 -17 -8 -29 -10 -12 -2 -44
-10 -72 -17 -109 -31 -134 -36 -172 -36 -21 0 -43 -4 -48 -9 -6 -6 -24 -5 -47
2 -31 10 -38 17 -38 37 1 31 66 96 165 165 39 27 72 50 74 52 3 2 -5 13 -17
26 -12 13 -22 27 -22 33 1 5 12 -4 25 -20 l24 -30 51 36 c157 110 301 264 286
305 -4 10 -2 13 8 10 10 -4 15 5 19 36 6 55 -13 84 -59 93 -46 9 -205 -3 -218
-16 -6 -6 -22 -10 -36 -10 -15 0 -30 -3 -34 -7 -9 -10 -78 -33 -98 -33 -10 0
-18 -4 -18 -10 0 -5 -11 -10 -25 -10 -14 0 -25 -4 -25 -10 0 -5 -9 -10 -20
-10 -11 0 -20 -4 -20 -10 0 -5 -11 -10 -25 -10 -14 0 -25 -4 -25 -10 0 -5 -6
-10 -13 -10 -18 0 -67 -24 -67 -32 0 -5 -6 -8 -13 -8 -26 0 -137 -62 -131 -72
4 -6 -1 -8 -15 -3 -14 4 -29 1 -39 -7 -9 -8 -40 -26 -68 -40 -69 -36 -127 -68
-141 -80 -7 -6 -13 -8 -13 -4 0 6 -48 -21 -60 -34 -3 -3 -19 -12 -35 -21 -59
-30 -120 -64 -125 -69 -3 -3 -27 -16 -55 -30 -27 -14 -52 -27 -55 -30 -13 -13
-70 -50 -78 -50 -4 0 -47 -25 -96 -55 -48 -30 -91 -55 -97 -55 -5 0 -9 -4 -9
-9 0 -5 -13 -14 -30 -21 -16 -7 -30 -16 -30 -19 0 -4 -16 -13 -35 -21 -19 -8
-35 -16 -35 -19 0 -3 -20 -17 -45 -30 -25 -13 -45 -28 -45 -32 0 -5 -6 -9 -13
-9 -11 0 -234 -144 -247 -159 -3 -3 -17 -12 -32 -20 -16 -8 -28 -18 -28 -23 0
-4 -4 -8 -10 -8 -5 0 -45 -25 -87 -55 -118 -83 -123 -87 -117 -96 3 -5 -1 -6
-8 -4 -8 3 -23 -4 -35 -15 -12 -11 -26 -20 -32 -20 -5 0 -11 -4 -13 -8 -1 -5
-28 -26 -58 -48 -30 -21 -62 -45 -70 -54 -8 -8 -44 -37 -80 -64 -36 -27 -69
-54 -75 -60 -5 -6 -28 -24 -50 -41 -96 -72 -380 -353 -446 -441 -24 -33 -52
-68 -61 -78 -10 -11 -24 -32 -30 -48 -7 -15 -16 -28 -20 -28 -5 0 -8 -5 -8
-11 0 -6 -9 -23 -20 -38 -29 -42 -72 -179 -75 -241 -3 -71 25 -160 66 -212 49
-61 360 -372 475 -473 159 -141 227 -202 249 -222 38 -34 120 -99 206 -165
l86 -65 26 23 c14 12 23 25 20 28 -4 3 -1 6 5 6 10 0 88 54 193 133 8 7 23 17
31 22 9 6 37 25 62 43 26 17 50 32 55 32 4 0 16 8 27 18 23 20 52 39 74 49 8
4 17 9 20 12 5 6 12 10 89 53 20 11 38 23 41 27 3 3 16 12 30 20 141 81 195
114 198 121 2 5 10 6 18 3 8 -3 14 1 14 11 0 10 6 13 16 9 9 -3 19 -2 23 3 3
5 27 21 54 34 26 14 47 28 47 32 0 5 7 8 15 8 8 0 31 10 52 21 85 48 155 85
278 148 72 36 132 69 133 73 2 5 9 8 15 8 15 0 141 63 145 73 2 4 10 7 17 7 8
0 65 25 127 55 62 30 118 55 125 55 7 0 13 5 13 10 0 6 9 10 20 10 11 0 20 5
20 10 0 6 6 10 13 10 18 0 67 24 67 33 0 4 8 7 19 7 23 0 73 25 65 32 -3 4 1
5 8 4 16 -1 202 76 206 86 2 4 10 8 18 8 8 0 22 4 32 9 74 37 106 51 118 51 8
0 14 5 14 10 0 6 9 10 19 10 11 0 23 5 26 10 3 6 13 10 21 10 8 0 31 7 52 17
37 16 45 19 60 22 4 1 0 6 -8 11 -11 8 -8 9 11 4 15 -3 30 -1 33 5 4 6 14 11
22 11 8 0 34 9 56 20 23 11 50 20 60 20 10 0 18 5 18 10 0 6 9 10 19 10 11 0
23 5 26 10 3 6 15 10 26 10 10 0 19 5 19 10 0 6 11 10 24 10 14 0 28 5 31 10
3 6 15 10 26 10 11 0 17 4 14 10 -4 6 7 10 24 10 17 0 31 5 31 10 0 6 11 10
24 10 14 0 28 5 31 10 3 6 15 10 26 10 10 0 19 5 19 11 0 5 4 8 10 4 5 -3 31
5 58 19 26 13 65 27 85 31 21 4 40 11 43 16 3 5 12 9 20 9 8 0 34 9 56 20 23
11 50 20 59 20 10 0 21 5 24 10 3 6 17 10 31 10 13 0 24 5 24 10 0 6 11 10 24
10 14 0 27 4 30 8 3 4 27 14 55 22 28 7 48 17 45 22 -3 4 10 8 29 8 18 0 37 3
41 7 3 4 12 8 19 9 18 3 109 35 129 45 10 5 27 9 37 9 11 0 23 5 26 10 3 6 17
10 31 10 13 0 24 5 24 10 0 6 11 10 25 10 14 0 25 5 25 10 0 6 16 10 35 10 19
0 35 5 35 10 0 6 8 10 18 10 20 0 89 23 98 33 4 4 20 7 35 7 15 0 31 5 34 10
3 6 17 10 30 10 13 0 27 5 30 11 4 5 12 8 18 6 7 -2 23 1 37 8 14 7 59 20 100
30 41 10 79 22 85 27 5 4 21 8 36 8 15 0 31 5 34 10 3 6 17 10 30 10 13 0 26
4 29 9 3 5 22 12 41 15 19 3 51 9 70 12 19 3 35 10 35 15 0 5 16 9 35 9 19 0
35 5 35 10 0 6 11 10 25 10 14 0 33 4 43 9 9 5 44 15 77 21 33 7 71 16 85 20
14 5 77 20 140 35 63 14 129 30 146 35 17 6 40 10 52 10 11 0 23 4 26 9 6 8
24 12 129 27 23 3 46 10 52 15 5 5 26 9 46 9 21 0 41 5 44 10 3 6 23 10 44 10
20 0 41 4 46 9 10 9 35 13 153 27 29 4 55 10 58 15 3 5 25 9 49 9 24 0 46 4
49 8 2 4 24 9 47 11 23 1 47 5 53 9 6 3 38 10 71 14 68 8 280 36 370 48 33 5
89 11 125 14 36 4 94 11 130 16 36 6 106 12 155 15 166 10 489 25 585 27 117
2 489 -11 510 -19 8 -3 60 -9 115 -14 100 -9 188 -20 300 -40 33 -5 74 -12 90
-13 17 -2 37 -6 45 -9 30 -11 126 -31 142 -29 10 0 20 -3 23 -9 4 -5 19 -9 34
-9 15 0 31 -3 35 -7 12 -12 80 -33 109 -33 15 0 27 -4 27 -10 0 -5 14 -10 30
-10 17 0 30 -4 30 -10 0 -5 9 -10 19 -10 11 0 23 -4 26 -10 3 -5 15 -10 26
-10 10 0 27 -4 37 -9 96 -49 152 -71 168 -65 13 4 15 3 6 -3 -9 -7 8 -22 61
-56 89 -56 257 -217 257 -247 0 -5 4 -10 9 -10 5 0 12 -10 16 -22 6 -20 8 -20
12 -5 2 9 9 17 14 17 5 0 9 7 9 15 0 9 9 25 20 37 11 12 20 28 20 35 0 7 3 13
8 13 4 0 13 15 21 33 8 17 25 49 38 69 12 20 24 43 25 50 2 7 11 21 21 32 15
18 22 37 18 59 0 4 2 7 7 7 4 0 13 15 20 33 8 17 22 49 33 70 10 22 19 47 19
58 0 10 5 19 10 19 6 0 10 11 10 24 0 14 5 28 10 31 6 3 10 17 10 30 0 13 5
27 10 30 6 3 10 21 10 40 0 19 4 36 9 39 9 6 14 30 32 166 15 107 15 165 1
260 -20 131 -24 150 -33 150 -5 0 -9 9 -9 20 0 22 -1 23 -54 126 -6 11 -17 19
-23 17 -7 -3 -9 3 -6 16 3 12 1 21 -6 21 -6 0 -11 6 -11 14 0 30 -225 246
-257 246 -6 0 -18 9 -28 20 -10 11 -22 20 -26 20 -5 0 -30 13 -57 29 -27 16
-66 35 -88 42 -21 7 -54 22 -72 31 -18 10 -41 18 -50 18 -10 0 -22 4 -28 9
-13 14 -147 49 -163 43 -8 -3 -11 0 -7 7 5 7 -3 11 -23 11 -17 0 -31 5 -31 10
0 6 -16 10 -35 10 -19 0 -35 4 -35 9 0 8 -15 12 -118 27 -23 4 -45 11 -48 15
-3 5 -23 9 -44 9 -21 0 -41 4 -44 9 -3 4 -27 11 -53 15 -27 3 -77 11 -113 16
-154 25 -313 43 -530 59 -104 8 -754 13 -762 6z m1015 -62 c-7 -2 -21 -2 -30
0 -10 3 -4 5 12 5 17 0 24 -2 18 -5z m-1933 -58 c0 -8 -4 -15 -8 -15 -5 0 -9
7 -9 15 0 8 4 15 9 15 4 0 8 -7 8 -15z m2343 8 c-7 -2 -19 -2 -25 0 -7 3 -2 5
12 5 14 0 19 -2 13 -5z m-2460 -30 c-7 -2 -19 -2 -25 0 -7 3 -2 5 12 5 14 0
19 -2 13 -5z m2560 0 c-7 -2 -21 -2 -30 0 -10 3 -4 5 12 5 17 0 24 -2 18 -5z
m90 -10 c-7 -2 -19 -2 -25 0 -7 3 -2 5 12 5 14 0 19 -2 13 -5z m-3010 -40 c-7
-2 -19 -2 -25 0 -7 3 -2 5 12 5 14 0 19 -2 13 -5z m-6 -19 c-3 -3 -12 -4 -19
-1 -8 3 -5 6 6 6 11 1 17 -2 13 -5z m3370 -30 c-3 -3 -12 -4 -19 -1 -8 3 -5 6
6 6 11 1 17 -2 13 -5z m40 -30 c-3 -3 -12 -4 -19 -1 -8 3 -5 6 6 6 11 1 17 -2
13 -5z m33 -34 c0 -5 -4 -10 -10 -10 -5 0 -10 5 -10 10 0 6 5 10 10 10 6 0 10
-4 10 -10z m-4540 -130 c0 -5 -8 -10 -17 -10 -15 0 -16 2 -3 10 19 12 20 12
20 0z m4850 -30 c0 -5 -2 -10 -4 -10 -3 0 -8 5 -11 10 -3 6 -1 10 4 10 6 0 11
-4 11 -10z m-5107 -37 c-7 -2 -19 -2 -25 0 -7 3 -2 5 12 5 14 0 19 -2 13 -5z
m5182 -23 c3 -5 1 -10 -4 -10 -6 0 -11 5 -11 10 0 6 2 10 4 10 3 0 8 -4 11
-10z m165 -130 c0 -5 -2 -10 -4 -10 -3 0 -8 5 -11 10 -3 6 -1 10 4 10 6 0 11
-4 11 -10z m-8230 -130 c0 -5 -2 -10 -4 -10 -3 0 -8 5 -11 10 -3 6 -1 10 4 10
6 0 11 -4 11 -10z m388 -25 c-3 -3 -9 2 -12 12 -6 14 -5 15 5 6 7 -7 10 -15 7
-18z m7922 -50 c0 -5 -5 -3 -10 5 -5 8 -10 20 -10 25 0 6 5 3 10 -5 5 -8 10
-19 10 -25z m-8420 15 c0 -5 -4 -10 -10 -10 -5 0 -10 5 -10 10 0 6 5 10 10 10
6 0 10 -4 10 -10z m-50 -20 c18 -12 2 -12 -25 0 -13 6 -15 9 -5 9 8 0 22 -4
30 -9z m514 -25 c3 -8 1 -15 -3 -15 -5 0 -11 7 -15 15 -3 8 -1 15 3 15 5 0 11
-7 15 -15z m-51 -25 c3 -11 1 -18 -4 -14 -5 3 -9 12 -9 20 0 20 7 17 13 -6z
m-553 -30 c0 -5 -4 -10 -10 -10 -5 0 -10 5 -10 10 0 6 5 10 10 10 6 0 10 -4
10 -10z m545 -10 c3 -5 1 -10 -4 -10 -6 0 -11 5 -11 10 0 6 2 10 4 10 3 0 8
-4 11 -10z m-698 -76 c-3 -3 -12 -4 -19 -1 -8 3 -5 6 6 6 11 1 17 -2 13 -5z
m1568 -24 c-3 -5 -10 -10 -16 -10 -5 0 -9 5 -9 10 0 6 7 10 16 10 8 0 12 -4 9
-10z m-126 -49 c10 -7 7 -9 -12 -8 -14 1 -23 5 -20 10 6 9 15 9 32 -2z m-1769
-56 c0 -12 -19 -12 -23 0 -4 9 -1 12 9 8 7 -3 14 -7 14 -8z m-150 -75 c0 -5
-5 -10 -11 -10 -5 0 -7 5 -4 10 3 6 8 10 11 10 2 0 4 -4 4 -10z m-37 -27 c-7
-2 -19 -2 -25 0 -7 3 -2 5 12 5 14 0 19 -2 13 -5z m1594 1 c-3 -3 -12 -4 -19
-1 -8 3 -5 6 6 6 11 1 17 -2 13 -5z m-817 -45 c0 -6 -4 -7 -10 -4 -5 3 -10 11
-10 16 0 6 5 7 10 4 6 -3 10 -11 10 -16z m-855 -29 c-3 -5 -11 -10 -16 -10 -6
0 -7 5 -4 10 3 6 11 10 16 10 6 0 7 -4 4 -10z m1515 -4 c0 -3 -4 -8 -10 -11
-5 -3 -10 -1 -10 4 0 6 5 11 10 11 6 0 10 -2 10 -4z m-1697 -75 c3 -14 0 -17
-14 -14 -15 4 -17 8 -8 19 15 18 16 18 22 -5z m1447 -12 c0 -6 -4 -7 -10 -4
-5 3 -10 11 -10 16 0 6 5 7 10 4 6 -3 10 -11 10 -16z m-1510 -23 c0 -2 -7 -7
-16 -10 -8 -3 -12 -2 -9 4 6 10 25 14 25 6z m6915 -16 c-3 -5 -10 -10 -16 -10
-5 0 -9 5 -9 10 0 6 7 10 16 10 8 0 12 -4 9 -10z m-6955 -10 c0 -5 -8 -10 -17
-10 -15 0 -16 2 -3 10 19 12 20 12 20 0z m1170 -10 c0 -5 -5 -10 -11 -10 -5 0
-7 5 -4 10 3 6 8 10 11 10 2 0 4 -4 4 -10z m8417 -52 c-3 -8 -6 -5 -6 6 -1 11
2 17 5 13 3 -3 4 -12 1 -19z m-3110 6 c-3 -3 -12 -4 -19 -1 -8 3 -5 6 6 6 11
1 17 -2 13 -5z m1410 0 c-3 -3 -12 -4 -19 -1 -8 3 -5 6 6 6 11 1 17 -2 13 -5z
m110 0 c-3 -3 -12 -4 -19 -1 -8 3 -5 6 6 6 11 1 17 -2 13 -5z m-50 -30 c-3 -3
-12 -4 -19 -1 -8 3 -5 6 6 6 11 1 17 -2 13 -5z m-8104 -11 c-7 -2 -19 -2 -25
0 -7 3 -2 5 12 5 14 0 19 -2 13 -5z m9697 -53 c0 -5 -4 -10 -10 -10 -5 0 -10
5 -10 10 0 6 5 10 10 10 6 0 10 -4 10 -10z m-9840 -30 c0 -5 -5 -10 -11 -10
-5 0 -7 5 -4 10 3 6 8 10 11 10 2 0 4 -4 4 -10z m5590 -64 c0 -3 -4 -8 -10
-11 -5 -3 -10 -1 -10 4 0 6 5 11 10 11 6 0 10 -2 10 -4z m3480 -36 c-8 -5 -19
-10 -25 -10 -5 0 -3 5 5 10 8 5 20 10 25 10 6 0 3 -5 -5 -10z m90 -12 c10 -3
8 -6 -7 -10 -15 -4 -23 0 -26 14 -4 14 -2 16 6 10 7 -5 19 -11 27 -14z m-3820
-12 c0 -2 -7 -6 -15 -10 -8 -3 -15 -1 -15 4 0 6 7 10 15 10 8 0 15 -2 15 -4z
m-5640 -96 c8 -5 11 -10 5 -10 -5 0 -17 5 -25 10 -8 5 -10 10 -5 10 6 0 17 -5
25 -10z m-50 -24 c0 -2 -6 -9 -14 -15 -11 -9 -16 -9 -22 0 -4 8 -3 9 4 5 7 -4
12 -2 12 3 0 6 5 11 10 11 6 0 10 -2 10 -4z m9787 -32 c-3 -3 -12 -4 -19 -1
-8 3 -5 6 6 6 11 1 17 -2 13 -5z m-4763 -13 c4 -5 -3 -7 -14 -4 -23 6 -26 13
-6 13 8 0 17 -4 20 -9z m-5084 -15 c0 -11 -19 -15 -25 -6 -3 5 1 10 9 10 9 0
16 -2 16 -4z m10064 -71 c3 -8 1 -15 -3 -15 -5 0 -11 7 -15 15 -3 8 -1 15 3
15 5 0 11 -7 15 -15z m-17 -62 c-3 -10 -5 -4 -5 12 0 17 2 24 5 18 2 -7 2 -21
0 -30z m-5519 -18 c-3 -3 -9 2 -12 12 -6 14 -5 15 5 6 7 -7 10 -15 7 -18z
m-148 -15 c0 -5 -4 -10 -10 -10 -5 0 -10 5 -10 10 0 6 5 10 10 10 6 0 10 -4
10 -10z m-103 -66 c-3 -3 -12 -4 -19 -1 -8 3 -5 6 6 6 11 1 17 -2 13 -5z
m-219 -68 c-7 -8 -17 -12 -22 -9 -4 3 -2 9 5 14 22 13 31 11 17 -5z m-4438
-26 c0 -5 -5 -10 -11 -10 -5 0 -7 5 -4 10 3 6 8 10 11 10 2 0 4 -4 4 -10z
m4263 -47 c-7 -2 -19 -2 -25 0 -7 3 -2 5 12 5 14 0 19 -2 13 -5z m-38 -13 c3
-5 -1 -10 -10 -10 -9 0 -13 5 -10 10 3 6 8 10 10 10 2 0 7 -4 10 -10z m-85
-20 c0 -5 -2 -10 -4 -10 -3 0 -8 5 -11 10 -3 6 -1 10 4 10 6 0 11 -4 11 -10z
m-4320 -20 c0 -5 -5 -10 -11 -10 -5 0 -7 5 -4 10 3 6 8 10 11 10 2 0 4 -4 4
-10z m30 -10 c0 -5 -4 -10 -10 -10 -5 0 -10 5 -10 10 0 6 5 10 10 10 6 0 10
-4 10 -10z m4175 -10 c-3 -5 -12 -10 -18 -10 -7 0 -6 4 3 10 19 12 23 12 15 0z
m-4265 -60 c0 -5 -5 -10 -11 -10 -5 0 -7 5 -4 10 3 6 8 10 11 10 2 0 4 -4 4
-10z m4127 4 c-3 -3 -12 -4 -19 -1 -8 3 -5 6 6 6 11 1 17 -2 13 -5z m-152 -34
c3 -5 2 -10 -4 -10 -5 0 -13 5 -16 10 -3 6 -2 10 4 10 5 0 13 -4 16 -10z
m-100 -20 c3 -5 1 -10 -4 -10 -6 0 -11 5 -11 10 0 6 2 10 4 10 3 0 8 -4 11
-10z m-491 -166 c5 -14 4 -15 -9 -4 -17 14 -19 20 -6 20 5 0 12 -7 15 -16z
m81 -4 c3 -5 1 -10 -4 -10 -6 0 -11 5 -11 10 0 6 2 10 4 10 3 0 8 -4 11 -10z
m-145 -10 c0 -5 -4 -10 -10 -10 -5 0 -10 5 -10 10 0 6 5 10 10 10 6 0 10 -4
10 -10z m20 -64 c0 -3 -4 -8 -10 -11 -5 -3 -10 -1 -10 4 0 6 5 11 10 11 6 0
10 -2 10 -4z m-3680 -66 c0 -5 -5 -10 -11 -10 -5 0 -7 5 -4 10 3 6 8 10 11 10
2 0 4 -4 4 -10z m3391 -68 c-7 -2 -18 1 -23 6 -8 8 -4 9 13 5 13 -4 18 -8 10
-11z m-3431 -12 c0 -5 -4 -10 -10 -10 -5 0 -10 5 -10 10 0 6 5 10 10 10 6 0
10 -4 10 -10z m3218 -64 c-7 -8 -17 -12 -22 -9 -4 3 -2 9 5 14 22 13 31 11 17
-5z m-381 -192 c-3 -3 -12 -4 -19 -1 -8 3 -5 6 6 6 11 1 17 -2 13 -5z m-160
-40 c-3 -3 -12 -4 -19 -1 -8 3 -5 6 6 6 11 1 17 -2 13 -5z m-2680 -106 c-3 -7
-5 -2 -5 12 0 14 2 19 5 13 2 -7 2 -19 0 -25z m-36 -25 c13 -16 12 -17 -3 -4
-17 13 -22 21 -14 21 2 0 10 -8 17 -17z m2396 -49 c-3 -3 -12 -4 -19 -1 -8 3
-5 6 6 6 11 1 17 -2 13 -5z m-2285 -69 c-3 -5 -7 -4 -10 3 -2 7 -8 10 -13 7
-5 -4 -6 1 -3 9 5 12 9 13 19 3 7 -7 10 -16 7 -22z m1968 -104 c0 -5 -7 -11
-14 -14 -10 -4 -13 -1 -9 9 6 15 23 19 23 5z m-120 -65 c0 -2 -7 -7 -16 -10
-8 -3 -12 -2 -9 4 6 10 25 14 25 6z m-160 -16 c0 -5 -4 -10 -10 -10 -5 0 -10
5 -10 10 0 6 5 10 10 10 6 0 10 -4 10 -10z m-1450 -30 c0 -5 -4 -10 -10 -10
-5 0 -10 5 -10 10 0 6 5 10 10 10 6 0 10 -4 10 -10z m1460 -50 c0 -5 -8 -10
-17 -10 -15 0 -16 2 -3 10 19 12 20 12 20 0z m-47 -7 c-7 -2 -19 -2 -25 0 -7
3 -2 5 12 5 14 0 19 -2 13 -5z m-1273 -37 c0 -2 -9 -6 -20 -9 -11 -3 -20 -1
-20 4 0 5 9 9 20 9 11 0 20 -2 20 -4z m1167 -2 c-3 -3 -12 -4 -19 -1 -8 3 -5
6 6 6 11 1 17 -2 13 -5z m48 -4 c3 -5 -1 -10 -10 -10 -9 0 -13 5 -10 10 3 6 8
10 10 10 2 0 7 -4 10 -10z m-1205 -20 c0 -5 -4 -10 -10 -10 -5 0 -10 5 -10 10
0 6 5 10 10 10 6 0 10 -4 10 -10z m40 -65 c0 -11 -29 -11 -33 -1 -4 10 1 12
14 9 10 -3 19 -7 19 -8z m113 -82 c-7 -2 -19 -2 -25 0 -7 3 -2 5 12 5 14 0 19
-2 13 -5z m697 -8 c0 -8 -7 -15 -16 -15 -14 0 -14 3 -4 15 7 8 14 15 16 15 2
0 4 -7 4 -15z m-640 -59 c0 -2 -7 -7 -16 -10 -8 -3 -12 -2 -9 4 6 10 25 14 25
6z m155 -46 c-3 -5 -11 -10 -16 -10 -6 0 -7 5 -4 10 3 6 11 10 16 10 6 0 7 -4
4 -10z m52 -26 c-3 -3 -12 -4 -19 -1 -8 3 -5 6 6 6 11 1 17 -2 13 -5z m197
-82 c2 -4 -4 -8 -14 -8 -10 0 -16 4 -14 8 3 4 9 8 14 8 5 0 11 -4 14 -8z m-97
-88 c-3 -3 -12 -4 -19 -1 -8 3 -5 6 6 6 11 1 17 -2 13 -5z"/>
<path fill="#ff0000" d="M12175 5934 c-140 -7 -376 -25 -450 -34 -44 -6 -156 -19 -250 -31
-93 -11 -195 -24 -225 -29 -30 -5 -111 -19 -180 -30 -69 -11 -145 -25 -170
-30 -25 -5 -97 -18 -160 -30 -590 -109 -1372 -322 -2165 -590 -457 -154 -565
-194 -565 -206 0 -6 12 -21 26 -35 43 -39 69 -121 99 -314 8 -49 17 -107 21
-127 6 -36 6 -37 -45 -62 -47 -24 -51 -29 -44 -54 3 -15 14 -61 23 -102 12
-53 21 -74 31 -72 8 2 53 26 102 54 l87 50 96 -17 c116 -21 176 -15 263 26 80
39 103 42 231 31 58 -5 112 -5 121 -1 8 4 24 26 34 48 10 23 22 41 27 41 5 0
45 -30 88 -66 89 -75 111 -112 130 -216 14 -79 26 -84 100 -44 113 62 169 86
219 96 62 12 191 13 207 2 6 -4 13 -42 16 -84 8 -125 55 -174 183 -188 33 -3
87 -19 119 -34 33 -15 94 -39 135 -53 143 -49 402 -41 464 15 11 9 38 44 60
77 44 67 77 105 88 105 6 0 17 -41 35 -135 4 -26 98 -122 169 -175 50 -37 174
-103 240 -128 17 -7 71 -23 120 -36 119 -32 135 -39 166 -72 42 -46 173 -243
209 -314 106 -212 183 -239 340 -121 80 60 102 54 114 -29 8 -56 19 -75 40
-67 14 6 16 45 16 356 0 192 -4 352 -8 355 -5 3 -39 0 -76 -6 l-68 -11 7 -46
c3 -25 9 -56 12 -68 7 -31 -13 -30 -112 7 -129 49 -207 91 -259 140 -95 87
-264 281 -285 325 -28 60 -28 160 0 246 27 82 39 105 101 190 l51 70 -6 171
c-6 156 -4 175 15 230 26 76 21 122 -22 213 -32 66 -87 147 -119 171 -23 18
-7 38 65 80 130 75 213 171 245 284 24 88 62 110 224 135 61 9 155 23 210 32
226 34 454 73 479 83 15 5 25 14 22 19 -5 8 -506 12 -641 5z"/>
<path fill="#7e7e7e" d="M13064 3309 c-33 -38 -204 -178 -318 -262 -77 -57 -355 -240 -406
-268 -25 -13 -47 -26 -50 -29 -29 -29 -491 -260 -520 -260 -5 0 -24 -8 -42
-18 -18 -10 -42 -21 -53 -24 -11 -4 -58 -17 -105 -31 -148 -43 -202 -44 -243
-2 -31 31 -19 55 72 144 90 89 110 126 96 171 -25 78 -326 83 -640 10 -91 -22
-130 -30 -163 -36 -18 -4 -35 -11 -38 -15 -3 -5 -18 -9 -34 -9 -16 0 -32 -4
-35 -10 -3 -5 -14 -10 -23 -10 -28 0 -355 -109 -369 -123 -3 -4 -12 -7 -20 -7
-7 0 -35 -9 -61 -21 -26 -12 -56 -25 -67 -29 -11 -4 -36 -15 -55 -23 -19 -9
-59 -25 -88 -36 -64 -25 -329 -155 -432 -212 -214 -118 -370 -255 -370 -324 0
-52 22 -67 115 -79 59 -8 374 18 550 45 39 6 95 14 125 19 93 14 256 43 330
59 25 5 84 18 132 28 47 10 90 21 94 26 4 4 20 7 35 7 16 0 38 4 51 9 13 5 68
21 123 36 117 30 291 82 320 95 11 5 52 19 90 31 66 20 85 27 138 48 12 5 90
35 172 66 83 32 154 62 160 66 5 5 17 9 27 9 10 0 18 5 18 10 0 6 7 10 15 10
8 0 23 4 33 10 9 5 55 27 102 49 210 97 439 216 610 319 242 146 559 365 767
531 l32 26 -22 12 c-30 16 -31 16 -53 -8z"/>
</g>
</svg>
