<svg xmlns="http://www.w3.org/2000/svg" xmlns:xlink="http://www.w3.org/1999/xlink" x="0px" y="0px" style="enable-background:new 0 0 72 72;" xml:space="preserve" viewBox="0 0 72 72"> <style type="text/css"> 	.st0{fill:#0172F0;} 	.st1{fill:#FFFFFF;} </style> <g id="Layer_1"> 	<rect class="st0" width="72" height="72"></rect> 	<g> 		<path class="st1" d="M20.2,21.7h-2.9l-1.9,15.4h-3.7l1.9-15.4h-2.9l0.4-3.5h9.5L20.2,21.7z"></path> 		<path class="st1" d="M23.2,37.4c-3.1,0-4-2.6-4-5.3c0-3.4,1.6-7.9,5.6-7.9c2.8,0,4,2.2,4,4.7C28.8,32.5,27.6,37.4,23.2,37.4z     M24.4,27.5c-1.4,0-1.7,3.7-1.7,4.8c0,0.6,0.1,2,0.9,2c1.4,0,1.7-3.9,1.7-4.9C25.2,28.8,25.2,27.5,24.4,27.5z"></path> 		<path class="st1" d="M38.6,37.2h-3.5l0.2-1.4c-0.6,0.9-1.4,1.7-2.5,1.7c-2.3,0-2.7-2.9-2.7-4.7c0-1.1,0.1-2.2,0.3-3.3    c0.4-2,1.5-5.2,4-5.2c1.1,0,1.8,0.8,2.1,1.8l1.2-9.5h3.5L38.6,37.2z M35.4,27.5c-1.4,0-1.8,3.7-1.8,4.8c0,0.6,0.1,2,0.9,2    c1.4,0,1.7-3.9,1.7-4.9C36.2,28.8,36.1,27.5,35.4,27.5z"></path> 		<path class="st1" d="M49.7,37.2h-3.5l0.2-1.4c-0.6,0.9-1.4,1.7-2.5,1.7c-2.3,0-2.7-2.9-2.7-4.7c0-1.1,0.1-2.2,0.3-3.3    c0.4-2,1.5-5.2,4-5.2c1.1,0,1.8,0.8,2.1,1.8l0.2-1.6h3.5L49.7,37.2z M46.5,27.5c-1.4,0-1.8,3.7-1.8,4.8c0,0.6,0.1,2,0.9,2    c1.4,0,1.7-3.9,1.7-4.9C47.3,28.8,47.3,27.5,46.5,27.5z"></path> 		<path class="st1" d="M55.1,43h-3.4l2.6-6.1l-2.1-12.4h3.5l0.6,4.6c0.1,0.8,0.2,1.7,0.3,2.6l2.5-7.2h3.5L55.1,43z"></path> 	</g> 	<g> 		<path class="st1" d="M18.7,48.1c0.9,1.3,1.7,2.5,2.6,3.9h0.1c-0.1-1.4-0.1-2.8-0.1-4.2v-7.6H23v14.2h-1.7l-5.6-7.9    c-1-1.4-1.8-2.7-2.6-3.9H13c0.1,1.3,0.1,2.8,0.1,4.5v7.3h-1.7V40.2h1.7L18.7,48.1z"></path> 		<path class="st1" d="M31.2,53.2c0.5,0,1,0,1.5-0.1c0.4-0.1,0.9-0.2,1.3-0.4v1.4c-0.4,0.2-0.8,0.3-1.3,0.4    c-0.5,0.1-1.1,0.2-1.7,0.2c-0.7,0-1.4-0.1-2-0.3c-0.6-0.2-1.2-0.5-1.6-0.9c-0.5-0.4-0.8-0.9-1.1-1.6c-0.3-0.7-0.4-1.5-0.4-2.4    c0-0.9,0.1-1.7,0.4-2.4c0.3-0.7,0.6-1.2,1-1.7s0.9-0.8,1.5-1s1.1-0.3,1.7-0.3c0.6,0,1.1,0.1,1.6,0.3s0.9,0.5,1.3,0.9    c0.4,0.4,0.6,0.9,0.9,1.6c0.2,0.6,0.3,1.4,0.3,2.3c0,0.1,0,0.2,0,0.2c0,0.1,0,0.2,0,0.4h-7c0,0.6,0.1,1.2,0.3,1.6    c0.2,0.5,0.5,0.8,0.8,1.1c0.3,0.3,0.7,0.5,1.2,0.6C30.2,53.1,30.6,53.2,31.2,53.2z M30.3,45.4c-0.4,0-0.7,0.1-1.1,0.2    c-0.3,0.1-0.6,0.4-0.9,0.6s-0.4,0.6-0.6,0.9c-0.2,0.3-0.2,0.7-0.3,1.1h5.2c0-0.4-0.1-0.8-0.2-1.1c-0.1-0.3-0.3-0.6-0.5-0.9    c-0.2-0.3-0.4-0.5-0.7-0.6C31,45.5,30.7,45.4,30.3,45.4z"></path> 		<path class="st1" d="M43.2,45.9c-0.2,0.9-0.4,1.7-0.6,2.4l-1.6,6h-1.7L36,44.3h1.6l1.9,6.3c0.2,0.8,0.4,1.5,0.6,2h0    c0.1-0.5,0.3-1.2,0.6-2.2l1.7-6.1h1.6l1.8,6.1c0.2,0.8,0.5,1.6,0.6,2.2h0c0.2-0.7,0.4-1.3,0.6-2l1.9-6.3h1.6l-3.4,10.1h-1.7    l-1.7-6C43.7,47.6,43.5,46.8,43.2,45.9L43.2,45.9z"></path> 		<path class="st1" d="M53.9,47c0,0.3,0.1,0.5,0.2,0.7c0.1,0.2,0.3,0.3,0.5,0.4s0.4,0.2,0.7,0.3c0.3,0.1,0.5,0.1,0.8,0.2    c0.4,0.1,0.7,0.2,1.1,0.3s0.7,0.3,0.9,0.5c0.3,0.2,0.5,0.5,0.7,0.8s0.3,0.8,0.3,1.4c0,0.5-0.1,1-0.3,1.4c-0.2,0.4-0.5,0.7-0.8,1    s-0.8,0.5-1.3,0.6c-0.5,0.1-1.1,0.2-1.7,0.2c-0.4,0-0.7,0-1-0.1s-0.6-0.1-0.8-0.1c-0.2-0.1-0.4-0.1-0.6-0.2    c-0.2-0.1-0.3-0.1-0.4-0.2v-1.4c0.4,0.2,0.8,0.3,1.2,0.4c0.4,0.1,0.9,0.1,1.4,0.1c0.4,0,0.7,0,1.1-0.1c0.3-0.1,0.6-0.2,0.8-0.3    c0.2-0.1,0.4-0.3,0.5-0.5c0.1-0.2,0.2-0.5,0.2-0.7c0-0.3-0.1-0.5-0.2-0.7c-0.1-0.2-0.3-0.3-0.4-0.5c-0.2-0.1-0.4-0.2-0.7-0.3    c-0.2-0.1-0.5-0.1-0.8-0.2c-0.4-0.1-0.7-0.2-1.1-0.3c-0.4-0.1-0.7-0.3-1-0.4c-0.3-0.2-0.5-0.5-0.7-0.8c-0.2-0.3-0.3-0.8-0.3-1.3    c0-0.5,0.1-1,0.3-1.4c0.2-0.4,0.5-0.7,0.8-1c0.3-0.3,0.7-0.4,1.1-0.6c0.4-0.1,0.9-0.2,1.4-0.2c0.6,0,1.1,0.1,1.6,0.2    c0.5,0.1,0.9,0.2,1.3,0.4V46c-0.4-0.2-0.8-0.3-1.3-0.4s-0.9-0.2-1.3-0.2c-0.4,0-0.7,0-1,0.1s-0.5,0.2-0.7,0.3    c-0.2,0.1-0.3,0.3-0.4,0.5C53.9,46.5,53.9,46.7,53.9,47z"></path> 	</g>	 </g> </svg>